<svg width="459" height="362" viewBox="0 0 459 362" fill="none" xmlns="http://www.w3.org/2000/svg">
<path d="M433.201 66.8029C436.565 39.1689 416.89 14.0404 389.256 10.6767C361.622 7.31306 336.493 26.988 333.129 54.622C329.766 82.256 349.441 107.384 377.075 110.748C404.709 114.112 429.837 94.4368 433.201 66.8029Z" fill="#EBEBEB"/>
<path d="M385.481 109.93C412.048 109.93 433.585 88.3939 433.585 61.8271C433.585 35.2603 412.048 13.7236 385.481 13.7236C358.914 13.7236 337.378 35.2603 337.378 61.8271C337.378 88.3939 358.914 109.93 385.481 109.93Z" fill="#DBDBDB"/>
<path d="M385.481 106.895C410.371 106.895 430.549 86.7173 430.549 61.8272C430.549 36.9371 410.371 16.7596 385.481 16.7596C360.591 16.7596 340.414 36.9371 340.414 61.8272C340.414 86.7173 360.591 106.895 385.481 106.895Z" fill="white"/>
<path opacity="0.5" d="M429.518 52.27C409.001 64.6987 375.277 85.15 356.426 96.2744C351.095 91.7849 346.878 86.1199 344.107 79.7248L406.459 21.9437C412.283 25.0093 417.365 29.3127 421.349 34.5518C425.333 39.7908 428.121 45.8385 429.518 52.27Z" fill="#EBEBEB"/>
<path opacity="0.5" d="M430.472 63.4054C430.314 68.4188 429.31 73.3694 427.502 78.048L371.288 104.626C368.836 103.821 366.459 102.802 364.186 101.579C381.207 91.7699 412.235 73.916 430.472 63.4054Z" fill="#EBEBEB"/>
<path d="M385.909 20.0366H385.043V26.8647H385.909V20.0366Z" fill="#C7C7C7"/>
<path d="M364.953 25.3979L364.194 25.8363L367.608 31.7496L368.367 31.3112L364.953 25.3979Z" fill="#C7C7C7"/>
<path d="M349.482 40.5456L349.049 41.2954L354.962 44.7094L355.395 43.9596L349.482 40.5456Z" fill="#C7C7C7"/>
<path d="M350.519 61.3997H343.691V62.2655H350.519V61.3997Z" fill="#C7C7C7"/>
<path d="M354.988 78.9568L349.075 82.3708L349.508 83.1207L355.421 79.7066L354.988 78.9568Z" fill="#C7C7C7"/>
<path d="M367.637 91.9144L364.226 97.8295L364.986 98.2675L368.397 92.3524L367.637 91.9144Z" fill="#C7C7C7"/>
<path d="M385.909 96.7896H385.043V103.618H385.909V96.7896Z" fill="#C7C7C7"/>
<path d="M403.338 91.8861L402.579 92.3245L405.993 98.2378L406.753 97.7994L403.338 91.8861Z" fill="#C7C7C7"/>
<path d="M415.952 78.9212L415.52 79.671L421.433 83.0851L421.866 82.3352L415.952 78.9212Z" fill="#C7C7C7"/>
<path d="M427.272 61.3997H420.444V62.2655H427.272V61.3997Z" fill="#C7C7C7"/>
<path d="M423.331 40.9712L417.39 44.3853L417.823 45.1385L423.764 41.7245L423.331 40.9712Z" fill="#C7C7C7"/>
<path d="M406.002 25.4256L402.591 31.3407L403.35 31.7787L406.761 25.8636L406.002 25.4256Z" fill="#C7C7C7"/>
<path d="M386.139 23.1274L387.618 64.874L383.344 64.8192L384.977 23.1165L386.139 23.1274Z" fill="#C7C7C7"/>
<path d="M412.136 47.2722L384.045 65.2028L382.007 61.4435L411.577 46.2529L412.136 47.2722Z" fill="#A6A6A6"/>
<path d="M385.481 63.2848C386.286 63.2848 386.939 62.6321 386.939 61.8271C386.939 61.022 386.286 60.3694 385.481 60.3694C384.676 60.3694 384.023 61.022 384.023 61.8271C384.023 62.6321 384.676 63.2848 385.481 63.2848Z" fill="#C7C7C7"/>
<path d="M264.494 295.757H15.3181V1.65674H264.494V295.757ZM21.3023 289.762H258.499V7.60802H21.3023V289.762Z" fill="#EBEBEB"/>
<path d="M140.569 9.20813H134.574V292.754H140.569V9.20813Z" fill="#EBEBEB"/>
<path d="M269.93 13.7676H9.88196V22.1081H269.93V13.7676Z" fill="#EBEBEB"/>
<path d="M269.93 23.1603H9.88196V31.5008H269.93V23.1603Z" fill="#EBEBEB"/>
<path d="M269.93 32.542H9.88196V40.8825H269.93V32.542Z" fill="#EBEBEB"/>
<path d="M269.93 41.9347H9.88196V50.2753H269.93V41.9347Z" fill="#EBEBEB"/>
<path d="M269.93 51.3165H9.88196V59.6571H269.93V51.3165Z" fill="#EBEBEB"/>
<path d="M269.93 60.7092H9.88196V69.0498H269.93V60.7092Z" fill="#EBEBEB"/>
<path d="M269.93 70.0909H9.88196V78.4315H269.93V70.0909Z" fill="#EBEBEB"/>
<path d="M269.93 79.4836H9.88196V87.8242H269.93V79.4836Z" fill="#EBEBEB"/>
<path d="M269.93 88.8765H9.88196V97.217H269.93V88.8765Z" fill="#EBEBEB"/>
<path d="M252.131 12.0797H250.629V174.463H252.131V12.0797Z" fill="#263238"/>
<path d="M254.038 181.434H248.722L250.059 173.795H252.712L254.038 181.434Z" fill="#263238"/>
<path d="M257.534 12.0797H256.033V260.368H257.534V12.0797Z" fill="#263238"/>
<path d="M259.43 265.979H254.115L255.452 258.34H258.104L259.43 265.979Z" fill="#263238"/>
<path d="M279.235 0.484009H0.587891V17.9433H279.235V0.484009Z" fill="#DBDBDB"/>
<path d="M426.767 293.927H356.349V361.594H426.767V293.927Z" fill="#EBEBEB"/>
<path d="M453.532 293.927H426.767V361.594H453.532V293.927Z" fill="#C7C7C7"/>
<path d="M356.349 327.761H426.767L371.77 329.503L356.349 327.761Z" fill="#C7C7C7"/>
<path d="M426.767 353.418H356.349L411.347 355.161L426.767 353.418Z" fill="#C7C7C7"/>
<path d="M356.349 308.854H400.957L361.303 310.268L356.349 308.854Z" fill="#C7C7C7"/>
<path d="M426.767 343.455H382.171L421.814 344.88L426.767 343.455Z" fill="#C7C7C7"/>
<path d="M373.25 301.314H423.556L415.172 302.169L373.25 301.314Z" fill="#C7C7C7"/>
<path d="M363.199 335.016H413.506L405.121 335.871L363.199 335.016Z" fill="#C7C7C7"/>
<path d="M394.14 315.288H426.767L432.598 317.568L394.14 315.288Z" fill="#EBEBEB"/>
<path d="M347.362 315.288H380.001L385.832 317.568L347.362 315.288Z" fill="#EBEBEB"/>
<path d="M389.24 345.702H356.602L350.771 347.982L389.24 345.702Z" fill="#EBEBEB"/>
<path d="M426.767 337.986H452.984L458.815 340.255L426.767 337.986Z" fill="#C7C7C7"/>
<path d="M435.919 327.761H456.239L453.532 325.908L435.919 327.761Z" fill="#C7C7C7"/>
</svg>
